<?xml version="1.0" encoding="iso-8859-1"?>
<!-- Generator: Adobe Illustrator 19.0.0, SVG Export Plug-In . SVG Version: 6.00 Build 0)  -->
<svg version="1.1" id="Layer_1" xmlns="http://www.w3.org/2000/svg" xmlns:xlink="http://www.w3.org/1999/xlink" x="0px" y="0px"
	 viewBox="0 0 496.2 496.2" style="enable-background:new 0 0 496.2 496.2;" xml:space="preserve">
<path style="fill:#A3D5E0;" d="M248.1,0C111.1,0,0,111.1,0,248.1s111.1,248.1,248.1,248.1s248.1-111.1,248.1-248.1S385.1,0,248.1,0z
	"/>
<path style="fill:#2A3F49;" d="M394.8,382.8c-7.3-27.3-69.9-49.3-147.1-49.3s-139.1,22.1-146.4,49.3c-3.3,12.2-7,35.2-10.1,57.5
	c42.7,34.9,97.4,55.9,156.9,55.9s114.1-21,156.9-55.9C401.8,417.9,398.1,394.9,394.8,382.8z"/>
<g>
	<polygon style="fill:#AF9604;" points="325,463.6 326.2,456.1 319.6,459.6 312.9,456.1 314.1,463.6 308.7,468.8 316.2,469.9 
		319.5,476.7 322.9,469.9 330.4,468.9 	"/>
	<polygon style="fill:#AF9604;" points="311.2,436 314.6,455.1 319.4,457.7 324.6,455.1 328,436 	"/>
</g>
<g>
	<path style="fill:#172023;" d="M165.9,342.7c-1.7,0.4-3.3,0.9-5,1.3l5.4,14.8l4.8-1.8L165.9,342.7z"/>
	<path style="fill:#172023;" d="M180.2,339.5c-2.2,0.4-4.4,0.9-6.6,1.4l4.9,13.5l6.2-2.3L180.2,339.5z"/>
	<path style="fill:#172023;" d="M153.4,346.2c-1.6,0.5-3.2,1-4.8,1.6l5.7,15.5l-7.4,2.7l-5.7-15.5c-1.6,0.6-3.1,1.3-4.6,1.9
		l5.6,15.3l16.8-6.2L153.4,346.2z"/>
	<path style="fill:#172023;" d="M129.4,355.8c-2.1,1-4,2.1-5.9,3.2l5.1,13.8l6.2-2.3L129.4,355.8z"/>
</g>
<g>
	<path style="fill:#AF9604;" d="M173.7,340.9c-2.6,0.6-5.2,1.2-7.7,1.8l5.3,14.4l7.4-2.7L173.7,340.9z"/>
	<path style="fill:#AF9604;" d="M136.5,352.4c-2.5,1.1-4.9,2.2-7.2,3.3l5.4,14.7l7.4-2.7L136.5,352.4z"/>
	<path style="fill:#AF9604;" d="M148.6,347.8c-2.6,0.9-5,1.8-7.4,2.7l5.7,15.5l7.4-2.7L148.6,347.8z"/>
	<path style="fill:#AF9604;" d="M161,344c-2.6,0.7-5.1,1.5-7.6,2.2l5.6,15.3l7.4-2.7L161,344z"/>
</g>
<g>
	<path style="fill:#172023;" d="M330.2,342.8l-5.2,14.3l4.8,1.8l5.3-14.8C333.5,343.6,331.8,343.2,330.2,342.8z"/>
	<path style="fill:#172023;" d="M355,350.6l-5.7,15.4l-7.4-2.7l5.7-15.4c-1.6-0.5-3.2-1.1-4.8-1.6l-5.6,15.3l16.8,6.2l5.6-15.3
		C358.1,351.8,356.5,351.2,355,350.6z"/>
	<path style="fill:#172023;" d="M315.9,339.6l-4.6,12.5l6.2,2.3l4.9-13.4C320.3,340.5,318.1,340,315.9,339.6z"/>
	<path style="fill:#172023;" d="M366.8,355.8l-5.4,14.6l6.2,2.3l5-13.7C370.8,357.9,368.8,356.9,366.8,355.8z"/>
</g>
<g>
	<path style="fill:#AF9604;" d="M322.4,341l-4.9,13.4l7.4,2.7l5.2-14.3C327.6,342.1,325.1,341.5,322.4,341z"/>
	<path style="fill:#AF9604;" d="M359.6,352.5l-5.6,15.3l7.4,2.7l5.4-14.6C364.5,354.7,362.1,353.6,359.6,352.5z"/>
	<path style="fill:#AF9604;" d="M347.5,347.9l-5.7,15.4l7.4,2.7l5.7-15.4C352.6,349.6,350.1,348.7,347.5,347.9z"/>
	<path style="fill:#AF9604;" d="M335.1,344.1l-5.4,14.8l7.4,2.7l5.6-15.3C340.3,345.5,337.7,344.8,335.1,344.1z"/>
</g>
<path style="fill:#FFFFFF;" d="M247.7,333.4c-89.6,0,0.4,162.8,0.4,162.8S337.3,333.4,247.7,333.4z"/>
<polygon style="fill:#172023;" points="248.1,360.5 232.3,368.4 248.1,394 263.8,368.4 "/>
<polygon style="fill:#C7C8C9;" points="247.9,317 208.3,322.3 210.2,335.4 247.8,363.5 286,335.4 287.9,322.3 "/>
<path style="fill:#E2A379;" d="M287,282.1h-77.8c12.1,36.6,1,53.3,1,53.3s16.8,28.1,37.6,28.1s38.2-28.1,38.2-28.1
	S274.9,318.7,287,282.1z"/>
<g>
	<path style="fill:#631F04;" d="M167.7,136c-21.5,15-19.6,50.1-19.6,50.1c-30,54,29.2,88.7,29.2,88.7s32.1,17.3,70.8,17.3V147.6
		L167.7,136z"/>
	<path style="fill:#631F04;" d="M348.3,186.1c-0.9-1.7,1.5-38.1-19.8-50.1l-80.2,11.6v144.5c38.7,0,70.8-17.3,70.8-17.3
		S376.5,241.1,348.3,186.1z"/>
</g>
<g>
	<path style="fill:#F4B382;" d="M248.1,61.6c-44,0-79.8,21.2-79.8,113.6c0,31.3,5.6,55.8,14,74.7c18.4,41.6,50.3,56.1,65.8,56.1
		s47.3-14.5,65.8-56.1c8.4-18.9,14-43.4,14-74.7C327.9,82.8,292.1,61.6,248.1,61.6z"/>
	<path style="fill:#F4B382;" d="M169.8,178c-7.6,1.3-13.4,4.6-9.1,29.7c4.3,25.2,9.6,26.3,17.3,25L169.8,178z"/>
	<path style="fill:#F4B382;" d="M326.5,178l-8.1,54.8c7.6,1.3,13,0.1,17.3-25C339.9,182.6,334.1,179.3,326.5,178z"/>
</g>
<path style="fill:#631F04;" d="M248.1,61.6c-57.3,0-82.7,25.1-82.7,117.5l9.5-7.9c45.8,0,32.9-26.9,61.2-52.3
	c0,42.8,94.7,60.1,94.7,60.1C330.8,86.7,305.4,61.6,248.1,61.6z"/>
<path style="fill:#CC785E;" d="M258.5,257.8c-3-0.4-10.4,2.5-10.4,2.5s-7.6-2.9-10.6-2.5c-4.8,0.7-16.1,4.6-16.1,6
	c0,0,14.2,9.6,26.7,9.6c12.5,0,26.7-9.6,26.7-9.6S263.4,258.5,258.5,257.8z"/>
<path style="fill:#C16952;" d="M254.2,264.4c-2-0.1-4.5,1.7-6.1,1.7c-1.9,0-4.8-1.8-7-1.6c-13.1,0.8-19.6-0.7-19.6-0.7
	s14.2,13.5,26.7,13.5c12.5,0,26.7-13.5,26.7-13.5S267.9,265.2,254.2,264.4z"/>
<g>
	<path style="fill:#631F04;" d="M174.8,183.1c-0.4-2.7-0.5-5.2-0.4-7.1c0.1-2.9,0.5-4.7,0.5-4.7l-9.4,3.5c0,1.4,0,2.9,0,4.3
		c0,0,1-0.3,2.8-0.9c-0.1,0-0.2,0.1-0.3,0.1c1.3,2.2,2.9,5.6,4.5,10.5C172.4,188.8,176.1,191.5,174.8,183.1z"/>
	<path style="fill:#631F04;" d="M330.7,174.8l-9.3-3.5c0,0,0.4,1.8,0.5,4.7c0.1,2,0,4.4-0.4,7.1c-1.3,8.4,2.3,5.7,2.3,5.7
		c1.5-5,3.2-8.3,4.4-10.5c1.6,0.6,2.5,0.8,2.5,0.8C330.8,177.6,330.8,176.2,330.7,174.8z"/>
</g>
<g>
	<polygon style="fill:#D4D6D8;" points="287.9,322.3 248.1,363.9 284.7,374.1 305.8,337.8 	"/>
	<polygon style="fill:#D4D6D8;" points="208.3,322.3 190.4,337.8 211.5,374.1 248.1,363.9 	"/>
</g>
<path style="fill:#334D5C;" d="M248.1,489.9l-50.4-154.1l-1.1-3.4l-12.5,5.2l-19.5,48.5l63.7,109.3c6.5,0.5,13.1,0.8,19.8,0.8V489.9
	z"/>
<path style="fill:#2A3F49;" d="M311.5,337.4L311.5,337.4L311.5,337.4L311.5,337.4z"/>
<path style="fill:#334D5C;" d="M312.1,337.6l-0.6-0.2l0,0l0,0l-11.9-5l-1.1,3.5l-50.4,154v6.2c6.7,0,13.3-0.3,19.8-0.8l63.7-109.2
	L312.1,337.6z"/>
<path style="fill:#172023;" d="M267,419.5c-2-22.6-15.4-38.5-15.4-38.5h-3.5v0.7V381h-3.5c0,0-13.4,15.9-15.4,38.5
	c-0.3,2.9-0.5,6.3-0.8,10.1l19.7,60.4l0,0l19.8-60.5C267.6,425.8,267.3,422.4,267,419.5z"/>
<path style="fill:#191919;" d="M318.4,115.7l-70.3-12l-85.8,12l-3,3.5l4.3,5.6c0,0-0.2,14.5,13.9,14.5s31.6-5.5,70.6-5.5
	s56.3,5.5,70.6,5.5c14.4,0,14.2-14.9,14.2-14.9l4-5.2L318.4,115.7z"/>
<path style="fill:#FFFFFF;" d="M346.9,73.8c0,0-38.2-35-99-35s-98.7,35-98.7,35s-10.5,10.5-2,25c0.3,0.5,0.6,1,0.9,1.4
	c4.6,6.8,14.1,15.5,14.1,15.5l-3,3.5c0,0,49.8-17,88.8-17s88.8,17,88.8,17l-3-3.5c0,0,9.3-8.5,14-15.3c0.4-0.6,0.8-1.1,1.1-1.7
	C357.4,84.3,346.9,73.8,346.9,73.8z"/>
<path style="fill:#B7B7B6;" d="M262.4,69l-6.1,7.5h3.4c-0.7,4.6-4.6,8.3-9.6,9.1L250,69.1h4.5c1,0,1.7-0.9,1.7-2s-0.8-2-1.7-2H250
	v-5c2.5-0.9,4.2-3.3,4.2-6.1c0-3.5-3-6.4-6.5-6.4c-3.6,0-6.5,2.9-6.5,6.5c0,2.8,1.9,5.3,4.6,6.1v4.9h-4c-1,0-1.7,0.9-1.7,2
	s0.8,2,1.7,2h4l0.1,16.3c-4.8-0.9-8.4-4.5-9.1-8.9h3.1l-5.7-7.4l-6.1,7.5h3.6c1.2,7.3,7.1,12.9,14.6,13.7c0.4,0.7,1,1.2,1.7,1.2
	c0.7,0,1.3-0.4,1.7-1.1c7.7-0.7,13.9-6.4,15-13.9h3.4L262.4,69z M249,55.6c-0.7-0.6-1.8-0.6-2.5,0.1c-0.6-0.4-1-1-1-1.7
	c0-1.1,0.9-2,2.1-2.1c1.2,0,2.1,0.9,2.1,2C249.7,54.7,249.5,55.2,249,55.6z"/>
<path style="fill:#AF9604;" d="M334.2,115.9c-14.5-6.1-46.2-17.1-86.1-17.1s-71.6,11-86.1,17.1l-2.9,3.4l4.3,5.7
	c15.1-8.3,46-16.7,84.7-16.7s69.6,8.3,84.7,16.7l4.3-5.7L334.2,115.9z"/>
<g>
</g>
<g>
</g>
<g>
</g>
<g>
</g>
<g>
</g>
<g>
</g>
<g>
</g>
<g>
</g>
<g>
</g>
<g>
</g>
<g>
</g>
<g>
</g>
<g>
</g>
<g>
</g>
<g>
</g>
</svg>
