<?xml version="1.0"?>
<svg width="85" height="40" xmlns="http://www.w3.org/2000/svg" xmlns:svg="http://www.w3.org/2000/svg">
 <!-- Created with SVG-edit - https://github.com/SVG-Edit/svgedit-->

 <g class="layer">
  <title>Layer 1</title>
  <g id="svg_10"/>
  <path d="m48.514068,2.501984c-0.163642,0.002832 -0.321781,0.010377 -0.486097,0.01933c-2.629066,0.143267 -4.949499,1.056092 -6.128306,2.416261l-0.624986,1.029328c0.134835,-0.356712 0.341872,-0.702659 0.624986,-1.029328c-2.102247,-1.191635 -5.052962,-1.741647 -7.968537,-1.483583c-2.915577,0.258062 -5.447628,1.293008 -6.831412,2.793198c-3.90645,-1.316305 -8.775917,-1.236582 -12.543066,0.2078c-3.767149,1.44438 -5.775032,4.001773 -5.164792,6.581894l0.399296,1.048658c-0.180437,-0.343551 -0.315189,-0.693051 -0.399296,-1.048658l-0.060762,0.096651c-3.274634,0.195241 -5.960239,1.585286 -6.657807,3.44559c-0.697568,1.860303 0.752934,3.769102 3.593652,4.731039l4.435645,0.589569c-1.548811,0.069748 -3.095099,-0.135627 -4.435645,-0.589569c-2.191146,1.342829 -2.695361,3.330855 -1.249965,4.972668c1.445393,1.64181 4.532233,2.587171 7.716805,2.372767l1.935712,-0.280287c-0.622823,0.142624 -1.269665,0.235445 -1.935712,0.280287c1.807858,1.820801 4.80552,3.149015 8.324427,3.677548c3.518907,0.528534 7.256582,0.216166 10.372984,-0.865019c2.542363,2.193505 7.054696,3.345618 11.579551,2.957501c4.524852,-0.388117 8.257411,-2.249248 9.583074,-4.77453l0.460056,-1.411097c-0.068886,0.479393 -0.218366,0.950702 -0.460056,1.411097c3.112254,1.116614 7.027111,1.179539 10.242779,0.164306c3.215669,-1.015234 5.22216,-2.951158 5.251595,-5.05965l-1.152839,-3.150388l-4.541453,-2.131559c3.511684,1.203494 5.725624,3.037133 5.694292,5.281947c4.175574,0.023941 7.722424,-1.933557 9.313986,-4.18013c1.591562,-2.246577 0.989503,-4.807799 -1.579824,-6.731704c1.065711,-1.432429 1.002485,-3.061807 -0.1736,-4.46525c-1.176092,-1.403443 -3.345479,-2.446551 -5.954706,-2.856021c-0.583911,-1.860091 -2.990797,-3.356335 -6.171707,-3.846688c-3.18091,-0.490353 -6.568,0.114296 -8.697681,1.556072l-1.293368,1.193633c0.330486,-0.431645 0.762111,-0.833982 1.293368,-1.193633c-1.501265,-1.133129 -3.855939,-1.772516 -6.310596,-1.730044l0.000005,-0.000006z" fill="#ffffff" id="svg_12" stroke="#000000" stroke-dasharray="null" stroke-linecap="null" stroke-linejoin="null" stroke-width="5"/>
 </g>
</svg>