<?xml version="1.0"?>
<svg width="1000" height="500" xmlns="http://www.w3.org/2000/svg" xmlns:svg="http://www.w3.org/2000/svg">
 <!-- Created with SVG-edit - https://github.com/SVG-Edit/svgedit-->

 <g class="layer">
  <title>Layer 1</title>
  <path d="m29.187677,202.44826c-0.554939,0 -1.048662,0.227803 -1.465237,0.641019c-0.416223,0.412876 -0.760499,1.004494 -1.046984,1.743359c-0.57289,1.477526 -0.925296,3.553115 -1.11806,6.038826c-0.192385,2.480928 -0.224807,5.369739 -0.144879,8.462154c-6.854856,2.812154 -20.75778,8.618497 -21.874616,9.914931c-1.486939,1.726054 -1.006512,3.704209 -0.407314,5.01739l22.85599,-4.65195c0.483124,6.062287 1.170057,12.066663 1.768664,16.771551c-2.235177,0.654164 -6.407528,1.945837 -7.268753,2.746821c-1.18641,1.103422 -1.186401,4.666898 -1.186401,4.666898l9.35453,-0.76083c0.22032,1.536035 0.358103,2.432303 0.358103,2.432303l0.01367,0.080878l0.073811,0l0.172216,0l0.073809,0l0.01367,-0.080878c0,0 0.137522,-0.896283 0.358102,-2.432303l9.357264,0.76083c0,0 0.000011,-3.563476 -1.186403,-4.666898c-0.861547,-0.801294 -5.036944,-2.095895 -7.271488,-2.749835c0.59737,-4.69045 1.283091,-10.67185 1.765933,-16.714606l22.588102,4.598018c0.59919,-1.31318 1.082365,-3.291335 -0.404577,-5.01739c-1.10302,-1.280389 -14.669996,-6.95759 -21.609453,-9.807104c0.082913,-3.132496 0.052436,-6.060675 -0.14215,-8.56998l0,-0.005991c-0.192862,-2.482969 -0.545644,-4.556536 -1.118055,-6.032835c-0.286403,-0.738661 -0.627877,-1.330339 -1.04425,-1.743359c-0.416579,-0.413216 -0.910297,-0.641019 -1.465232,-0.641019l-0.000011,0.000002z" fill="#000000" id="svg_11" stroke="#000000" stroke-dasharray="null" stroke-linecap="null" stroke-linejoin="null" stroke-opacity="0" stroke-width="5" transform="rotate(90 29.0517 229)"/>
 </g>
</svg>