<?xml version="1.0"?>
<svg width="1000" height="500" xmlns="http://www.w3.org/2000/svg" xmlns:svg="http://www.w3.org/2000/svg" xmlns:xlink="http://www.w3.org/1999/xlink">
 <!-- Created with SVG-edit - https://github.com/SVG-Edit/svgedit-->
 <defs>
  <symbol id="svg_8" viewBox="0 0 496.2 496.2" x="0px" xmlns="http://www.w3.org/2000/svg" xmlns:xlink="http://www.w3.org/1999/xlink" y="0px">
   <path d="m248.1,0c-137,0 -248.1,111.1 -248.1,248.1s111.1,248.1 248.1,248.1s248.1,-111.1 248.1,-248.1s-111.1,-248.1 -248.1,-248.1z" fill="#A3D5E0"/>
   <path d="m394.8,382.8c-7.3,-27.3 -69.9,-49.3 -147.1,-49.3s-139.1,22.1 -146.4,49.3c-3.3,12.2 -7,35.2 -10.1,57.5c42.7,34.9 97.4,55.9 156.9,55.9s114.1,-21 156.9,-55.9c-3.2,-22.4 -6.9,-45.4 -10.2,-57.5z" fill="#2A3F49"/>
   <g>
    <polygon fill="#AF9604" points="325,463.6 326.2,456.1 319.6,459.6 312.9,456.1 314.1,463.6 308.7,468.8 316.2,469.9    319.5,476.7 322.9,469.9 330.4,468.9  "/>
    <polygon fill="#AF9604" points="311.2,436 314.6,455.1 319.4,457.7 324.6,455.1 328,436  "/>
   </g>
   <g>
    <path d="m165.9,342.7c-1.7,0.4 -3.3,0.9 -5,1.3l5.4,14.8l4.8,-1.8l-5.2,-14.3z" fill="#172023"/>
    <path d="m180.2,339.5c-2.2,0.4 -4.4,0.9 -6.6,1.4l4.9,13.5l6.2,-2.3l-4.5,-12.6z" fill="#172023"/>
    <path d="m153.4,346.2c-1.6,0.5 -3.2,1 -4.8,1.6l5.7,15.5l-7.4,2.7l-5.7,-15.5c-1.6,0.6 -3.1,1.3 -4.6,1.9l5.6,15.3l16.8,-6.2l-5.6,-15.3z" fill="#172023"/>
    <path d="m129.4,355.8c-2.1,1 -4,2.1 -5.9,3.2l5.1,13.8l6.2,-2.3l-5.4,-14.7z" fill="#172023"/>
   </g>
   <g>
    <path d="m173.7,340.9c-2.6,0.6 -5.2,1.2 -7.7,1.8l5.3,14.4l7.4,-2.7l-5,-13.5z" fill="#AF9604"/>
    <path d="m136.5,352.4c-2.5,1.1 -4.9,2.2 -7.2,3.3l5.4,14.7l7.4,-2.7l-5.6,-15.3z" fill="#AF9604"/>
    <path d="m148.6,347.8c-2.6,0.9 -5,1.8 -7.4,2.7l5.7,15.5l7.4,-2.7l-5.7,-15.5z" fill="#AF9604"/>
    <path d="m161,344c-2.6,0.7 -5.1,1.5 -7.6,2.2l5.6,15.3l7.4,-2.7l-5.4,-14.8z" fill="#AF9604"/>
   </g>
   <g>
    <path d="m330.2,342.8l-5.2,14.3l4.8,1.8l5.3,-14.8c-1.6,-0.5 -3.3,-0.9 -4.9,-1.3z" fill="#172023"/>
    <path d="m355,350.6l-5.7,15.4l-7.4,-2.7l5.7,-15.4c-1.6,-0.5 -3.2,-1.1 -4.8,-1.6l-5.6,15.3l16.8,6.2l5.6,-15.3c-1.5,-0.7 -3.1,-1.3 -4.6,-1.9z" fill="#172023"/>
    <path d="m315.9,339.6l-4.6,12.5l6.2,2.3l4.9,-13.4c-2.1,-0.5 -4.3,-1 -6.5,-1.4z" fill="#172023"/>
    <path d="m366.8,355.8l-5.4,14.6l6.2,2.3l5,-13.7c-1.8,-1.1 -3.8,-2.1 -5.8,-3.2z" fill="#172023"/>
   </g>
   <g>
    <path d="m322.4,341l-4.9,13.4l7.4,2.7l5.2,-14.3c-2.5,-0.7 -5,-1.3 -7.7,-1.8z" fill="#AF9604"/>
    <path d="m359.6,352.5l-5.6,15.3l7.4,2.7l5.4,-14.6c-2.3,-1.2 -4.7,-2.3 -7.2,-3.4z" fill="#AF9604"/>
    <path d="m347.5,347.9l-5.7,15.4l7.4,2.7l5.7,-15.4c-2.3,-1 -4.8,-1.9 -7.4,-2.7z" fill="#AF9604"/>
    <path d="m335.1,344.1l-5.4,14.8l7.4,2.7l5.6,-15.3c-2.4,-0.8 -5,-1.5 -7.6,-2.2z" fill="#AF9604"/>
   </g>
   <path d="m247.7,333.4c-89.6,0 0.4,162.8 0.4,162.8s89.2,-162.8 -0.4,-162.8z" fill="#FFFFFF"/>
   <polygon fill="#172023" points="248.1,360.5 232.3,368.4 248.1,394 263.8,368.4 "/>
   <polygon fill="#C7C8C9" points="247.9,317 208.3,322.3 210.2,335.4 247.8,363.5 286,335.4 287.9,322.3 "/>
   <path d="m287,282.1l-77.8,0c12.1,36.6 1,53.3 1,53.3s16.8,28.1 37.6,28.1s38.2,-28.1 38.2,-28.1s-11.1,-16.7 1,-53.3z" fill="#E2A379"/>
   <g>
    <path d="m167.7,136c-21.5,15 -19.6,50.1 -19.6,50.1c-30,54 29.2,88.7 29.2,88.7s32.1,17.3 70.8,17.3l0,-144.5l-80.4,-11.6z" fill="#631F04"/>
    <path d="m348.3,186.1c-0.9,-1.7 1.5,-38.1 -19.8,-50.1l-80.2,11.6l0,144.5c38.7,0 70.8,-17.3 70.8,-17.3s57.4,-33.7 29.2,-88.7z" fill="#631F04"/>
   </g>
   <g>
    <path d="m248.1,61.6c-44,0 -79.8,21.2 -79.8,113.6c0,31.3 5.6,55.8 14,74.7c18.4,41.6 50.3,56.1 65.8,56.1s47.3,-14.5 65.8,-56.1c8.4,-18.9 14,-43.4 14,-74.7c0,-92.4 -35.8,-113.6 -79.8,-113.6z" fill="#F4B382"/>
    <path d="m169.8,178c-7.6,1.3 -13.4,4.6 -9.1,29.7c4.3,25.2 9.6,26.3 17.3,25l-8.2,-54.7z" fill="#F4B382"/>
    <path d="m326.5,178l-8.1,54.8c7.6,1.3 13,0.1 17.3,-25c4.2,-25.2 -1.6,-28.5 -9.2,-29.8z" fill="#F4B382"/>
   </g>
   <path d="m248.1,61.6c-57.3,0 -82.7,25.1 -82.7,117.5l9.5,-7.9c45.8,0 32.9,-26.9 61.2,-52.3c0,42.8 94.7,60.1 94.7,60.1c0,-92.3 -25.4,-117.4 -82.7,-117.4z" fill="#631F04"/>
   <path d="m258.5,257.8c-3,-0.4 -10.4,2.5 -10.4,2.5s-7.6,-2.9 -10.6,-2.5c-4.8,0.7 -16.1,4.6 -16.1,6c0,0 14.2,9.6 26.7,9.6c12.5,0 26.7,-9.6 26.7,-9.6s-11.4,-5.3 -16.3,-6z" fill="#CC785E"/>
   <path d="m254.2,264.4c-2,-0.1 -4.5,1.7 -6.1,1.7c-1.9,0 -4.8,-1.8 -7,-1.6c-13.1,0.8 -19.6,-0.7 -19.6,-0.7s14.2,13.5 26.7,13.5c12.5,0 26.7,-13.5 26.7,-13.5s-7,1.4 -20.7,0.6z" fill="#C16952"/>
   <g>
    <path d="m174.8,183.1c-0.4,-2.7 -0.5,-5.2 -0.4,-7.1c0.1,-2.9 0.5,-4.7 0.5,-4.7l-9.4,3.5c0,1.4 0,2.9 0,4.3c0,0 1,-0.3 2.8,-0.9c-0.1,0 -0.2,0.1 -0.3,0.1c1.3,2.2 2.9,5.6 4.5,10.5c-0.1,0 3.6,2.7 2.3,-5.7z" fill="#631F04"/>
    <path d="m330.7,174.8l-9.3,-3.5c0,0 0.4,1.8 0.5,4.7c0.1,2 0,4.4 -0.4,7.1c-1.3,8.4 2.3,5.7 2.3,5.7c1.5,-5 3.2,-8.3 4.4,-10.5c1.6,0.6 2.5,0.8 2.5,0.8c0.1,-1.5 0.1,-2.9 0,-4.3z" fill="#631F04"/>
   </g>
   <g>
    <polygon fill="#D4D6D8" points="287.9,322.3 248.1,363.9 284.7,374.1 305.8,337.8  "/>
    <polygon fill="#D4D6D8" points="208.3,322.3 190.4,337.8 211.5,374.1 248.1,363.9  "/>
   </g>
   <path d="m248.1,489.9l-50.4,-154.1l-1.1,-3.4l-12.5,5.2l-19.5,48.5l63.7,109.3c6.5,0.5 13.1,0.8 19.8,0.8l0,-6.3z" fill="#334D5C"/>
   <path d="m311.5,337.4l0,0l0,0l0,0z" fill="#2A3F49"/>
   <path d="m312.1,337.6l-0.6,-0.2l0,0l0,0l-11.9,-5l-1.1,3.5l-50.4,154l0,6.2c6.7,0 13.3,-0.3 19.8,-0.8l63.7,-109.2l-19.5,-48.5z" fill="#334D5C"/>
   <path d="m267,419.5c-2,-22.6 -15.4,-38.5 -15.4,-38.5l-3.5,0l0,0.7l0,-0.7l-3.5,0c0,0 -13.4,15.9 -15.4,38.5c-0.3,2.9 -0.5,6.3 -0.8,10.1l19.7,60.4l0,0l19.8,-60.5c-0.3,-3.7 -0.6,-7.1 -0.9,-10z" fill="#172023"/>
   <path d="m318.4,115.7l-70.3,-12l-85.8,12l-3,3.5l4.3,5.6c0,0 -0.2,14.5 13.9,14.5s31.6,-5.5 70.6,-5.5s56.3,5.5 70.6,5.5c14.4,0 14.2,-14.9 14.2,-14.9l4,-5.2l-18.5,-3.5z" fill="#191919"/>
   <path d="m346.9,73.8c0,0 -38.2,-35 -99,-35s-98.7,35 -98.7,35s-10.5,10.5 -2,25c0.3,0.5 0.6,1 0.9,1.4c4.6,6.8 14.1,15.5 14.1,15.5l-3,3.5c0,0 49.8,-17 88.8,-17s88.8,17 88.8,17l-3,-3.5c0,0 9.3,-8.5 14,-15.3c0.4,-0.6 0.8,-1.1 1.1,-1.7c8.5,-14.4 -2,-24.9 -2,-24.9z" fill="#FFFFFF"/>
   <path d="m262.4,69l-6.1,7.5l3.4,0c-0.7,4.6 -4.6,8.3 -9.6,9.1l-0.1,-16.5l4.5,0c1,0 1.7,-0.9 1.7,-2s-0.8,-2 -1.7,-2l-4.5,0l0,-5c2.5,-0.9 4.2,-3.3 4.2,-6.1c0,-3.5 -3,-6.4 -6.5,-6.4c-3.6,0 -6.5,2.9 -6.5,6.5c0,2.8 1.9,5.3 4.6,6.1l0,4.9l-4,0c-1,0 -1.7,0.9 -1.7,2s0.8,2 1.7,2l4,0l0.1,16.3c-4.8,-0.9 -8.4,-4.5 -9.1,-8.9l3.1,0l-5.7,-7.4l-6.1,7.5l3.6,0c1.2,7.3 7.1,12.9 14.6,13.7c0.4,0.7 1,1.2 1.7,1.2c0.7,0 1.3,-0.4 1.7,-1.1c7.7,-0.7 13.9,-6.4 15,-13.9l3.4,0l-5.7,-7.5zm-13.4,-13.4c-0.7,-0.6 -1.8,-0.6 -2.5,0.1c-0.6,-0.4 -1,-1 -1,-1.7c0,-1.1 0.9,-2 2.1,-2.1c1.2,0 2.1,0.9 2.1,2c0,0.8 -0.2,1.3 -0.7,1.7z" fill="#B7B7B6"/>
   <path d="m334.2,115.9c-14.5,-6.1 -46.2,-17.1 -86.1,-17.1s-71.6,11 -86.1,17.1l-2.9,3.4l4.3,5.7c15.1,-8.3 46,-16.7 84.7,-16.7s69.6,8.3 84.7,16.7l4.3,-5.7l-2.9,-3.4z" fill="#AF9604"/>
   <g/>
   <g/>
   <g/>
   <g/>
   <g/>
   <g/>
   <g/>
   <g/>
   <g/>
   <g/>
   <g/>
   <g/>
   <g/>
   <g/>
   <g/>
  </symbol>
 </defs>
 <g class="layer">
  <title>Layer 1</title>
  <rect fill="#ffffff" height="150" id="svg_5" stroke="#000000" stroke-dasharray="null" stroke-linecap="null" stroke-linejoin="null" stroke-width="5" width="990" x="5" y="345"/>
  <use id="svg_9" transform="matrix(0.335886 0 0 0.335886 0 0)" x="-217.335604" xlink:href="#svg_8" y="491.238009"/>
  <g id="svg_10"/>
 </g>
</svg>